{
  "accessors": [
    {
      "bufferView": 2,
      "componentType": 5126,
      "count": 2594,
      "max": [
        85.09156799316406,
        410.3270263671875,
        110.61597442626953
      ],
      "min": [
        -285.8045349121094,
        -227.60665893554688,
        81.99089050292969
      ],
      "type": "VEC3"
    },
    {
      "bufferView": 2,
      "byteOffset": 31128,
      "componentType": 5126,
      "count": 2594,
      "max": [
        0.9179785251617432,
        0.9990589022636414,
        0.9998014569282532
      ],
      "min": [
        -0.999300479888916,
        -0.997776985168457,
        -1.0
      ],
      "type": "VEC3"
    },
    {
      "bufferView": 1,
      "componentType": 5126,
      "count": 2594,
      "max": [
        0.4367609918117523,
        0.14512500166893005
      ],
      "min": [
        0.3842119872570038,
        0.09302099794149399
      ],
      "type": "VEC2"
    },
    {
      "bufferView": 0,
      "componentType": 5125,
      "count": 6813,
      "type": "SCALAR"
    },
    {
      "bufferView": 2,
      "byteOffset": 62256,
      "componentType": 5126,
      "count": 1965,
      "max": [
        -255.92247009277344,
        -153.79994201660156,
        110.61597442626953
      ],
      "min": [
        -285.8045349121094,
        -227.60665893554688,
        92.41756439208984
      ],
      "type": "VEC3"
    },
    {
      "bufferView": 2,
      "byteOffset": 85836,
      "componentType": 5126,
      "count": 1965,
      "max": [
        0.9179785251617432,
        0.9990589022636414,
        0.9998014569282532
      ],
      "min": [
        -0.9993001222610474,
        -0.997776985168457,
        -1.0
      ],
      "type": "VEC3"
    },
    {
      "bufferView": 1,
      "byteOffset": 20752,
      "componentType": 5126,
      "count": 1965,
      "max": [
        0.4367609918117523,
        0.14512500166893005
      ],
      "min": [
        0.3842119872570038,
        0.09302099794149399
      ],
      "type": "VEC2"
    },
    {
      "bufferView": 0,
      "byteOffset": 27252,
      "componentType": 5125,
      "count": 5139,
      "type": "SCALAR"
    },
    {
      "bufferView": 2,
      "byteOffset": 109416,
      "componentType": 5126,
      "count": 104,
      "max": [
        -26.336769104003906,
        388.64056396484375,
        262.4466552734375
      ],
      "min": [
        -29.192392349243164,
        -301.35107421875,
        228.2381591796875
      ],
      "type": "VEC3"
    },
    {
      "bufferView": 2,
      "byteOffset": 110664,
      "componentType": 5126,
      "count": 104,
      "max": [
        0.0,
        6.000000212225132e-06,
        1.0
      ],
      "min": [
        0.0,
        -6.000000212225132e-06,
        -1.0
      ],
      "type": "VEC3"
    },
    {
      "bufferView": 1,
      "byteOffset": 36472,
      "componentType": 5126,
      "count": 104,
      "max": [
        0.0,
        0.0
      ],
      "min": [
        0.0,
        0.0
      ],
      "type": "VEC2"
    },
    {
      "bufferView": 0,
      "byteOffset": 47808,
      "componentType": 5125,
      "count": 288,
      "type": "SCALAR"
    },
    {
      "bufferView": 2,
      "byteOffset": 111912,
      "componentType": 5126,
      "count": 6254,
      "max": [
        94.07272338867188,
        503.79144287109375,
        206.08740234375
      ],
      "min": [
        -295.2596435546875,
        -245.26223754882813,
        82.51350402832031
      ],
      "type": "VEC3"
    },
    {
      "bufferView": 2,
      "byteOffset": 186960,
      "componentType": 5126,
      "count": 6254,
      "max": [
        1.0,
        1.0,
        1.0
      ],
      "min": [
        -1.0,
        -1.0,
        -1.0
      ],
      "type": "VEC3"
    },
    {
      "bufferView": 1,
      "byteOffset": 37304,
      "componentType": 5126,
      "count": 6254,
      "max": [
        0.9997079968452454,
        0.9671170115470886
      ],
      "min": [
        0.0032760000322014093,
        0.0008880000095814466
      ],
      "type": "VEC2"
    },
    {
      "bufferView": 0,
      "byteOffset": 48960,
      "componentType": 5125,
      "count": 14358,
      "type": "SCALAR"
    },
    {
      "bufferView": 2,
      "byteOffset": 262008,
      "componentType": 5126,
      "count": 9900,
      "max": [
        232.601806640625,
        487.2248229980469,
        251.65476989746094
      ],
      "min": [
        -326.6589050292969,
        -400.5642395019531,
        -0.00012799999967683107
      ],
      "type": "VEC3"
    },
    {
      "bufferView": 2,
      "byteOffset": 380808,
      "componentType": 5126,
      "count": 9900,
      "max": [
        1.0,
        1.0,
        1.0
      ],
      "min": [
        -1.0,
        -1.0,
        -1.0
      ],
      "type": "VEC3"
    },
    {
      "bufferView": 1,
      "byteOffset": 87336,
      "componentType": 5126,
      "count": 9900,
      "max": [
        0.9938309788703918,
        0.9973589777946472
      ],
      "min": [
        0.5842249989509583,
        0.010009000077843666
      ],
      "type": "VEC2"
    },
    {
      "bufferView": 0,
      "byteOffset": 106392,
      "componentType": 5125,
      "count": 15042,
      "type": "SCALAR"
    },
    {
      "bufferView": 2,
      "byteOffset": 499608,
      "componentType": 5126,
      "count": 9097,
      "max": [
        199.9447479248047,
        504.6800842285156,
        253.6861572265625
      ],
      "min": [
        -303.81707763671875,
        -396.4326171875,
        -4.0883002281188965
      ],
      "type": "VEC3"
    },
    {
      "bufferView": 2,
      "byteOffset": 608772,
      "componentType": 5126,
      "count": 9097,
      "max": [
        1.0,
        1.0,
        1.0
      ],
      "min": [
        -1.0,
        -1.0,
        -1.0
      ],
      "type": "VEC3"
    },
    {
      "bufferView": 1,
      "byteOffset": 166536,
      "componentType": 5126,
      "count": 9097,
      "max": [
        0.9808089733123779,
        1.0
      ],
      "min": [
        0.0032760000322014093,
        0.0008880000095814466
      ],
      "type": "VEC2"
    },
    {
      "bufferView": 0,
      "byteOffset": 166560,
      "componentType": 5125,
      "count": 17493,
      "type": "SCALAR"
    },
    {
      "bufferView": 2,
      "byteOffset": 717936,
      "componentType": 5126,
      "count": 8597,
      "max": [
        200.80987548828125,
        486.3521423339844,
        236.5171661376953
      ],
      "min": [
        -298.7940368652344,
        -521.5128784179688,
        -8.199999865610152e-05
      ],
      "type": "VEC3"
    },
    {
      "bufferView": 2,
      "byteOffset": 821100,
      "componentType": 5126,
      "count": 8597,
      "max": [
        1.0,
        1.0,
        1.0
      ],
      "min": [
        -1.0,
        -1.0,
        -1.0
      ],
      "type": "VEC3"
    },
    {
      "bufferView": 1,
      "byteOffset": 239312,
      "componentType": 5126,
      "count": 8597,
      "max": [
        0.9851670265197754,
        0.6567860245704651
      ],
      "min": [
        0.0032760000322014093,
        0.0008880000095814466
      ],
      "type": "VEC2"
    },
    {
      "bufferView": 0,
      "byteOffset": 236532,
      "componentType": 5125,
      "count": 21918,
      "type": "SCALAR"
    },
    {
      "bufferView": 2,
      "byteOffset": 924264,
      "componentType": 5126,
      "count": 9905,
      "max": [
        200.00022888183594,
        503.5677185058594,
        270.00018310546875
      ],
      "min": [
        -301.017333984375,
        -496.4327087402344,
        -6.214376926422119
      ],
      "type": "VEC3"
    },
    {
      "bufferView": 2,
      "byteOffset": 1043124,
      "componentType": 5126,
      "count": 9905,
      "max": [
        1.0,
        1.0,
        1.0
      ],
      "min": [
        -1.0,
        -1.0,
        -1.0
      ],
      "type": "VEC3"
    },
    {
      "bufferView": 1,
      "byteOffset": 308088,
      "componentType": 5126,
      "count": 9905,
      "max": [
        0.9959449768066406,
        0.9970880150794983
      ],
      "min": [
        0.004827000200748444,
        0.0014009999576956034
      ],
      "type": "VEC2"
    },
    {
      "bufferView": 0,
      "byteOffset": 324204,
      "componentType": 5125,
      "count": 20268,
      "type": "SCALAR"
    },
    {
      "bufferView": 2,
      "byteOffset": 1161984,
      "componentType": 5126,
      "count": 9638,
      "max": [
        208.18563842773438,
        516.4801635742188,
        275.326904296875
      ],
      "min": [
        -319.3875732421875,
        -507.7131042480469,
        -1.4095770120620728
      ],
      "type": "VEC3"
    },
    {
      "bufferView": 2,
      "byteOffset": 1277640,
      "componentType": 5126,
      "count": 9638,
      "max": [
        1.0,
        1.0,
        1.0
      ],
      "min": [
        -1.0,
        -1.0,
        -1.0
      ],
      "type": "VEC3"
    },
    {
      "bufferView": 1,
      "byteOffset": 387328,
      "componentType": 5126,
      "count": 9638,
      "max": [
        0.877947986125946,
        0.8422629833221436
      ],
      "min": [
        0.007672000210732222,
        0.0033939999993890524
      ],
      "type": "VEC2"
    },
    {
      "bufferView": 0,
      "byteOffset": 405276,
      "componentType": 5125,
      "count": 16998,
      "type": "SCALAR"
    },
    {
      "bufferView": 2,
      "byteOffset": 1393296,
      "componentType": 5126,
      "count": 3672,
      "max": [
        200.0001983642578,
        507.034423828125,
        262.4466552734375
      ],
      "min": [
        -300.0,
        -505.8768310546875,
        -0.42081400752067566
      ],
      "type": "VEC3"
    },
    {
      "bufferView": 2,
      "byteOffset": 1437360,
      "componentType": 5126,
      "count": 3672,
      "max": [
        1.0,
        1.0,
        1.0
      ],
      "min": [
        -1.0,
        -1.0,
        -1.0
      ],
      "type": "VEC3"
    },
    {
      "bufferView": 1,
      "byteOffset": 464432,
      "componentType": 5126,
      "count": 3672,
      "max": [
        0.9950640201568604,
        0.7850800156593323
      ],
      "min": [
        0.135453999042511,
        0.21851100027561188
      ],
      "type": "VEC2"
    },
    {
      "bufferView": 0,
      "byteOffset": 473268,
      "componentType": 5125,
      "count": 6558,
      "type": "SCALAR"
    }
  ],
  "asset": {
    "extras": {
      "author": "circles xr (https://sketchfab.com/circles_xr)",
      "license": "CC-BY-4.0 (http://creativecommons.org/licenses/by/4.0/)",
      "source": "https://sketchfab.com/3d-models/viola-desmond-beauty-salon-bbea58435bf7471ebf2112788d2151c8",
      "title": "[Viola Desmond] Beauty Salon"
    },
    "generator": "Sketchfab-15.77.0",
    "version": "2.0"
  },
  "bufferViews": [
    {
      "buffer": 0,
      "byteLength": 499500,
      "name": "floatBufferViews",
      "target": 34963
    },
    {
      "buffer": 0,
      "byteLength": 493808,
      "byteOffset": 499500,
      "byteStride": 8,
      "name": "floatBufferViews",
      "target": 34962
    },
    {
      "buffer": 0,
      "byteLength": 1481424,
      "byteOffset": 993308,
      "byteStride": 12,
      "name": "floatBufferViews",
      "target": 34962
    }
  ],
  "buffers": [
    {
      "byteLength": 2474732,
      "uri": "scene.bin"
    }
  ],
  "extensionsUsed": [
    "KHR_materials_specular"
  ],
  "images": [
    {
      "uri": "textures/initialShadingGroup_baseColor.jpeg"
    },
    {
      "uri": "textures/initialShadingGroup_metallicRoughness.png"
    },
    {
      "uri": "textures/initialShadingGroup_specularf0.png"
    }
  ],
  "materials": [
    {
      "doubleSided": true,
      "extensions": {
        "KHR_materials_specular": {
          "specularColorFactor": [
            1.0,
            1.0,
            1.0
          ],
          "specularFactor": 1.0,
          "specularTexture": {
            "index": 2
          }
        }
      },
      "name": "initialShadingGroup",
      "pbrMetallicRoughness": {
        "baseColorTexture": {
          "index": 0
        },
        "metallicRoughnessTexture": {
          "index": 1
        }
      }
    }
  ],
  "meshes": [
    {
      "name": "Object_0",
      "primitives": [
        {
          "attributes": {
            "NORMAL": 1,
            "POSITION": 0,
            "TEXCOORD_0": 2
          },
          "indices": 3,
          "material": 0,
          "mode": 4
        }
      ]
    },
    {
      "name": "Object_1",
      "primitives": [
        {
          "attributes": {
            "NORMAL": 5,
            "POSITION": 4,
            "TEXCOORD_0": 6
          },
          "indices": 7,
          "material": 0,
          "mode": 4
        }
      ]
    },
    {
      "name": "Object_2",
      "primitives": [
        {
          "attributes": {
            "NORMAL": 9,
            "POSITION": 8,
            "TEXCOORD_0": 10
          },
          "indices": 11,
          "material": 0,
          "mode": 4
        }
      ]
    },
    {
      "name": "Object_3",
      "primitives": [
        {
          "attributes": {
            "NORMAL": 13,
            "POSITION": 12,
            "TEXCOORD_0": 14
          },
          "indices": 15,
          "material": 0,
          "mode": 4
        }
      ]
    },
    {
      "name": "Object_4",
      "primitives": [
        {
          "attributes": {
            "NORMAL": 17,
            "POSITION": 16,
            "TEXCOORD_0": 18
          },
          "indices": 19,
          "material": 0,
          "mode": 4
        }
      ]
    },
    {
      "name": "Object_5",
      "primitives": [
        {
          "attributes": {
            "NORMAL": 21,
            "POSITION": 20,
            "TEXCOORD_0": 22
          },
          "indices": 23,
          "material": 0,
          "mode": 4
        }
      ]
    },
    {
      "name": "Object_6",
      "primitives": [
        {
          "attributes": {
            "NORMAL": 25,
            "POSITION": 24,
            "TEXCOORD_0": 26
          },
          "indices": 27,
          "material": 0,
          "mode": 4
        }
      ]
    },
    {
      "name": "Object_7",
      "primitives": [
        {
          "attributes": {
            "NORMAL": 29,
            "POSITION": 28,
            "TEXCOORD_0": 30
          },
          "indices": 31,
          "material": 0,
          "mode": 4
        }
      ]
    },
    {
      "name": "Object_8",
      "primitives": [
        {
          "attributes": {
            "NORMAL": 33,
            "POSITION": 32,
            "TEXCOORD_0": 34
          },
          "indices": 35,
          "material": 0,
          "mode": 4
        }
      ]
    },
    {
      "name": "Object_9",
      "primitives": [
        {
          "attributes": {
            "NORMAL": 37,
            "POSITION": 36,
            "TEXCOORD_0": 38
          },
          "indices": 39,
          "material": 0,
          "mode": 4
        }
      ]
    }
  ],
  "nodes": [
    {
      "children": [
        1
      ],
      "matrix": [
        0.008244863711297512,
        0.0,
        0.0,
        0.0,
        0.0,
        1.8307275054357835e-18,
        -0.008244863711297512,
        0.0,
        0.0,
        0.008244863711297512,
        1.8307275054357835e-18,
        0.0,
        0.0,
        0.0,
        0.0,
        1.0
      ],
      "name": "Sketchfab_model"
    },
    {
      "children": [
        2,
        3,
        4,
        5,
        6,
        7,
        8,
        9,
        10,
        11
      ],
      "name": "Salon_OLD_EDIT.obj.cleaner.materialmerger.gles"
    },
    {
      "mesh": 0,
      "name": "Object_2"
    },
    {
      "mesh": 1,
      "name": "Object_3"
    },
    {
      "mesh": 2,
      "name": "Object_4"
    },
    {
      "mesh": 3,
      "name": "Object_5"
    },
    {
      "mesh": 4,
      "name": "Object_6"
    },
    {
      "mesh": 5,
      "name": "Object_7"
    },
    {
      "mesh": 6,
      "name": "Object_8"
    },
    {
      "mesh": 7,
      "name": "Object_9"
    },
    {
      "mesh": 8,
      "name": "Object_10"
    },
    {
      "mesh": 9,
      "name": "Object_11"
    }
  ],
  "samplers": [
    {
      "magFilter": 9729,
      "minFilter": 9987,
      "wrapS": 10497,
      "wrapT": 10497
    }
  ],
  "scene": 0,
  "scenes": [
    {
      "name": "Sketchfab_Scene",
      "nodes": [
        0
      ]
    }
  ],
  "textures": [
    {
      "sampler": 0,
      "source": 0
    },
    {
      "sampler": 0,
      "source": 1
    },
    {
      "sampler": 0,
      "source": 2
    }
  ]
}
