{
  "accessors": [
    {
      "bufferView": 2,
      "componentType": 5126,
      "count": 522,
      "max": [
        4.268489837646484,
        10.208596229553223,
        4.524943828582764
      ],
      "min": [
        -4.384231090545654,
        -10.208598136901855,
        -4.108590126037598
      ],
      "type": "VEC3"
    },
    {
      "bufferView": 2,
      "byteOffset": 6264,
      "componentType": 5126,
      "count": 522,
      "max": [
        0.9980936646461487,
        1.0,
        0.9944608807563782
      ],
      "min": [
        -0.9999904036521912,
        -1.0,
        -0.9999972581863403
      ],
      "type": "VEC3"
    },
    {
      "bufferView": 1,
      "componentType": 5126,
      "count": 522,
      "max": [
        0.7636598348617554,
        0.9685881733894348
      ],
      "min": [
        0.258215069770813,
        0.16196739673614502
      ],
      "type": "VEC2"
    },
    {
      "bufferView": 0,
      "componentType": 5125,
      "count": 3120,
      "type": "SCALAR"
    },
    {
      "bufferView": 2,
      "byteOffset": 12528,
      "componentType": 5126,
      "count": 522,
      "max": [
        3.915346384048462,
        25.512161254882813,
        4.1401214599609375
      ],
      "min": [
        -4.381789207458496,
        -32.34606170654297,
        -4.23664665222168
      ],
      "type": "VEC3"
    },
    {
      "bufferView": 2,
      "byteOffset": 18792,
      "componentType": 5126,
      "count": 522,
      "max": [
        0.9991061091423035,
        0.9989790916442871,
        0.9979205131530762
      ],
      "min": [
        -0.9984782338142395,
        -0.9977971911430359,
        -0.9975959658622742
      ],
      "type": "VEC3"
    },
    {
      "bufferView": 1,
      "byteOffset": 4176,
      "componentType": 5126,
      "count": 522,
      "max": [
        0.6998445987701416,
        0.9341138005256653
      ],
      "min": [
        0.2767178416252136,
        0.12144174426794052
      ],
      "type": "VEC2"
    },
    {
      "bufferView": 0,
      "byteOffset": 12480,
      "componentType": 5125,
      "count": 3120,
      "type": "SCALAR"
    },
    {
      "bufferView": 2,
      "byteOffset": 25056,
      "componentType": 5126,
      "count": 682,
      "max": [
        7.889532566070557,
        20.36929702758789,
        7.889534950256348
      ],
      "min": [
        -7.889535903930664,
        -5.477517127990723,
        -7.889536380767822
      ],
      "type": "VEC3"
    },
    {
      "bufferView": 2,
      "byteOffset": 33240,
      "componentType": 5126,
      "count": 682,
      "max": [
        1.0,
        1.0,
        1.0
      ],
      "min": [
        -1.0,
        -1.0,
        -1.0
      ],
      "type": "VEC3"
    },
    {
      "bufferView": 1,
      "byteOffset": 8352,
      "componentType": 5126,
      "count": 682,
      "max": [
        0.7020012140274048,
        0.8907443881034851
      ],
      "min": [
        0.2979987859725952,
        0.2203667312860489
      ],
      "type": "VEC2"
    },
    {
      "bufferView": 0,
      "byteOffset": 24960,
      "componentType": 5125,
      "count": 4080,
      "type": "SCALAR"
    },
    {
      "bufferView": 2,
      "byteOffset": 41424,
      "componentType": 5126,
      "count": 1162,
      "max": [
        1.748060941696167,
        0.9946035146713257,
        1.7480626106262207
      ],
      "min": [
        -1.7480604648590088,
        -1.4444363117218018,
        -1.7480602264404297
      ],
      "type": "VEC3"
    },
    {
      "bufferView": 2,
      "byteOffset": 55368,
      "componentType": 5126,
      "count": 1162,
      "max": [
        0.9990428686141968,
        1.0,
        0.9990430474281311
      ],
      "min": [
        -0.999042809009552,
        -1.0,
        -0.9990429282188416
      ],
      "type": "VEC3"
    },
    {
      "bufferView": 1,
      "byteOffset": 13808,
      "componentType": 5126,
      "count": 1162,
      "max": [
        0.609240710735321,
        0.9245515465736389
      ],
      "min": [
        0.3907596170902252,
        0.1291521191596985
      ],
      "type": "VEC2"
    },
    {
      "bufferView": 0,
      "byteOffset": 41280,
      "componentType": 5125,
      "count": 6960,
      "type": "SCALAR"
    },
    {
      "bufferView": 2,
      "byteOffset": 69312,
      "componentType": 5126,
      "count": 61,
      "max": [
        1.0000001192092896,
        0.0,
        1.0
      ],
      "min": [
        -1.0,
        0.0,
        -1.0
      ],
      "type": "VEC3"
    },
    {
      "bufferView": 2,
      "byteOffset": 70044,
      "componentType": 5126,
      "count": 61,
      "max": [
        0.0,
        1.0,
        0.0
      ],
      "min": [
        0.0,
        1.0,
        0.0
      ],
      "type": "VEC3"
    },
    {
      "bufferView": 1,
      "byteOffset": 23104,
      "componentType": 5126,
      "count": 61,
      "max": [
        0.9949131608009338,
        0.5662406086921692
      ],
      "min": [
        0.16175353527069092,
        0.03153723478317261
      ],
      "type": "VEC2"
    },
    {
      "bufferView": 0,
      "byteOffset": 69120,
      "componentType": 5125,
      "count": 288,
      "type": "SCALAR"
    },
    {
      "bufferView": 2,
      "byteOffset": 70776,
      "componentType": 5126,
      "count": 1162,
      "max": [
        1.748060941696167,
        0.9946035146713257,
        1.7480626106262207
      ],
      "min": [
        -1.7480604648590088,
        -1.4444363117218018,
        -1.7480602264404297
      ],
      "type": "VEC3"
    },
    {
      "bufferView": 2,
      "byteOffset": 84720,
      "componentType": 5126,
      "count": 1162,
      "max": [
        0.9990428686141968,
        1.0,
        0.9990430474281311
      ],
      "min": [
        -0.9990428686141968,
        -1.0,
        -0.9990429282188416
      ],
      "type": "VEC3"
    },
    {
      "bufferView": 1,
      "byteOffset": 23592,
      "componentType": 5126,
      "count": 1162,
      "max": [
        0.6092407703399658,
        0.9245515465736389
      ],
      "min": [
        0.39075967669487,
        0.1291521191596985
      ],
      "type": "VEC2"
    },
    {
      "bufferView": 0,
      "byteOffset": 70272,
      "componentType": 5125,
      "count": 6960,
      "type": "SCALAR"
    },
    {
      "bufferView": 2,
      "byteOffset": 98664,
      "componentType": 5126,
      "count": 61,
      "max": [
        1.0,
        0.0,
        1.0
      ],
      "min": [
        -1.0,
        0.0,
        -1.0
      ],
      "type": "VEC3"
    },
    {
      "bufferView": 2,
      "byteOffset": 99396,
      "componentType": 5126,
      "count": 61,
      "max": [
        0.0,
        1.0,
        0.0
      ],
      "min": [
        0.0,
        1.0,
        0.0
      ],
      "type": "VEC3"
    },
    {
      "bufferView": 1,
      "byteOffset": 32888,
      "componentType": 5126,
      "count": 61,
      "max": [
        0.932664155960083,
        0.7419127225875854
      ],
      "min": [
        0.07320097088813782,
        0.17800918221473694
      ],
      "type": "VEC2"
    },
    {
      "bufferView": 0,
      "byteOffset": 98112,
      "componentType": 5125,
      "count": 288,
      "type": "SCALAR"
    }
  ],
  "asset": {
    "extras": {
      "author": "Sandeep Kakani (https://sketchfab.com/sandeepsandykakani)",
      "license": "CC-BY-4.0 (http://creativecommons.org/licenses/by/4.0/)",
      "source": "https://sketchfab.com/3d-models/chapathi-5276969a17d24f2ea33e57e9c78c8919",
      "title": "Chapathi"
    },
    "generator": "Sketchfab-12.67.0",
    "version": "2.0"
  },
  "bufferViews": [
    {
      "buffer": 0,
      "byteLength": 99264,
      "name": "floatBufferViews",
      "target": 34963
    },
    {
      "buffer": 0,
      "byteLength": 33376,
      "byteOffset": 99264,
      "byteStride": 8,
      "name": "floatBufferViews",
      "target": 34962
    },
    {
      "buffer": 0,
      "byteLength": 100128,
      "byteOffset": 132640,
      "byteStride": 12,
      "name": "floatBufferViews",
      "target": 34962
    }
  ],
  "buffers": [
    {
      "byteLength": 232768,
      "uri": "scene.bin"
    }
  ],
  "images": [
    {
      "uri": "textures/lambert2_baseColor.jpeg"
    },
    {
      "uri": "textures/lambert3_baseColor.jpeg"
    },
    {
      "uri": "textures/lambert4_baseColor.jpeg"
    },
    {
      "uri": "textures/lambert5_baseColor.jpeg"
    }
  ],
  "materials": [
    {
      "doubleSided": true,
      "name": "lambert2",
      "pbrMetallicRoughness": {
        "baseColorTexture": {
          "index": 0
        },
        "metallicFactor": 0.0,
        "roughnessFactor": 0.6
      }
    },
    {
      "doubleSided": true,
      "name": "lambert3",
      "pbrMetallicRoughness": {
        "baseColorTexture": {
          "index": 1
        },
        "metallicFactor": 0.0,
        "roughnessFactor": 0.6
      }
    },
    {
      "doubleSided": true,
      "name": "lambert4",
      "pbrMetallicRoughness": {
        "baseColorTexture": {
          "index": 2
        },
        "metallicFactor": 0.0,
        "roughnessFactor": 0.6
      }
    },
    {
      "doubleSided": true,
      "name": "lambert5",
      "pbrMetallicRoughness": {
        "baseColorTexture": {
          "index": 3
        },
        "metallicFactor": 0.0,
        "roughnessFactor": 0.6
      }
    }
  ],
  "meshes": [
    {
      "name": "pCylinder1_lambert2_0",
      "primitives": [
        {
          "attributes": {
            "NORMAL": 1,
            "POSITION": 0,
            "TEXCOORD_0": 2
          },
          "indices": 3,
          "material": 0,
          "mode": 4
        }
      ]
    },
    {
      "name": "pCylinder2_lambert2_0",
      "primitives": [
        {
          "attributes": {
            "NORMAL": 5,
            "POSITION": 4,
            "TEXCOORD_0": 6
          },
          "indices": 7,
          "material": 0,
          "mode": 4
        }
      ]
    },
    {
      "name": "pCylinder3_lambert3_0",
      "primitives": [
        {
          "attributes": {
            "NORMAL": 9,
            "POSITION": 8,
            "TEXCOORD_0": 10
          },
          "indices": 11,
          "material": 1,
          "mode": 4
        }
      ]
    },
    {
      "name": "pCylinder4_lambert3_0",
      "primitives": [
        {
          "attributes": {
            "NORMAL": 13,
            "POSITION": 12,
            "TEXCOORD_0": 14
          },
          "indices": 15,
          "material": 1,
          "mode": 4
        }
      ]
    },
    {
      "name": "pDisc1_lambert4_0",
      "primitives": [
        {
          "attributes": {
            "NORMAL": 17,
            "POSITION": 16,
            "TEXCOORD_0": 18
          },
          "indices": 19,
          "material": 2,
          "mode": 4
        }
      ]
    },
    {
      "name": "pCylinder5_lambert3_0",
      "primitives": [
        {
          "attributes": {
            "NORMAL": 21,
            "POSITION": 20,
            "TEXCOORD_0": 22
          },
          "indices": 23,
          "material": 1,
          "mode": 4
        }
      ]
    },
    {
      "name": "pDisc2_lambert5_0",
      "primitives": [
        {
          "attributes": {
            "NORMAL": 25,
            "POSITION": 24,
            "TEXCOORD_0": 26
          },
          "indices": 27,
          "material": 3,
          "mode": 4
        }
      ]
    }
  ],
  "nodes": [
    {
      "children": [
        1
      ],
      "matrix": [
        1.0,
        0.0,
        0.0,
        0.0,
        0.0,
        2.220446049250313e-16,
        -1.0,
        0.0,
        0.0,
        1.0,
        2.220446049250313e-16,
        0.0,
        0.0,
        0.0,
        0.0,
        1.0
      ],
      "name": "Sketchfab_model"
    },
    {
      "children": [
        2
      ],
      "matrix": [
        1.0,
        0.0,
        0.0,
        0.0,
        0.0,
        0.0,
        1.0,
        0.0,
        0.0,
        -1.0,
        0.0,
        0.0,
        0.0,
        0.0,
        0.0,
        1.0
      ],
      "name": "de0347f5777240ecb2e47d44a13cbf11.fbx"
    },
    {
      "children": [
        3,
        5,
        7,
        9,
        11,
        13,
        15
      ],
      "name": "RootNode"
    },
    {
      "children": [
        4
      ],
      "matrix": [
        -0.8344643622709689,
        1.0219241102576794e-16,
        0.5510619094981124,
        0.0,
        2.1873008639327546e-18,
        0.011515121906995773,
        1.1767580709315365e-18,
        0.0,
        -0.5510619094981124,
        1.8995030027462453e-16,
        -0.8344643622709689,
        0.0,
        1.0350075960159302,
        0.24107725918293,
        0.2585768699645996,
        1.0
      ],
      "name": "pCylinder1"
    },
    {
      "mesh": 0,
      "name": "pCylinder1_lambert2_0"
    },
    {
      "children": [
        6
      ],
      "matrix": [
        0.6641051873130703,
        0.007562331897914986,
        -0.7476009037716163,
        0.0,
        0.00035504648495800195,
        0.013082410074218249,
        0.0004477278421081201,
        0.0,
        0.747147351650413,
        -0.04297643879463914,
        0.6632675633786901,
        0.0,
        2.400585174560547,
        0.4857902228832245,
        0.2585768699645996,
        1.0
      ],
      "name": "pCylinder2"
    },
    {
      "mesh": 1,
      "name": "pCylinder2_lambert2_0"
    },
    {
      "children": [
        8
      ],
      "matrix": [
        0.8278777599334717,
        0.0,
        0.0,
        0.0,
        0.0,
        0.018397290259599686,
        0.0,
        0.0,
        0.0,
        0.0,
        0.8278777599334717,
        0.0,
        1.5954787731170654,
        0.0392732173204422,
        -0.11891702562570572,
        1.0
      ],
      "name": "pCylinder3"
    },
    {
      "mesh": 2,
      "name": "pCylinder3_lambert3_0"
    },
    {
      "children": [
        10
      ],
      "matrix": [
        0.9040470123291016,
        0.0,
        0.0,
        0.0,
        0.0,
        0.7908791303634644,
        0.0,
        0.0,
        0.0,
        0.0,
        0.9040470123291016,
        0.0,
        -1.3810712099075317,
        1.1345993280410767,
        -8.277911186218262,
        1.0
      ],
      "name": "pCylinder4"
    },
    {
      "mesh": 3,
      "name": "pCylinder4_lambert3_0"
    },
    {
      "children": [
        12
      ],
      "matrix": [
        1.4909969568252563,
        0.0,
        0.0,
        0.0,
        0.0,
        1.4909969568252563,
        0.0,
        0.0,
        0.0,
        0.0,
        1.4909969568252563,
        0.0,
        -1.3779653310775757,
        1.634220838546753,
        -8.28060531616211,
        1.0
      ],
      "name": "pDisc1"
    },
    {
      "mesh": 4,
      "name": "pDisc1_lambert4_0"
    },
    {
      "children": [
        14
      ],
      "matrix": [
        0.9040470123291016,
        0.0,
        0.0,
        0.0,
        0.0,
        0.7908791303634644,
        0.0,
        0.0,
        0.0,
        0.0,
        0.9040470123291016,
        0.0,
        2.2455506324768066,
        1.1345993280410767,
        -8.277911186218262,
        1.0
      ],
      "name": "pCylinder5"
    },
    {
      "mesh": 5,
      "name": "pCylinder5_lambert3_0"
    },
    {
      "children": [
        16
      ],
      "matrix": [
        1.4909969568252563,
        0.0,
        0.0,
        0.0,
        0.0,
        1.4909969568252563,
        0.0,
        0.0,
        0.0,
        0.0,
        1.4909969568252563,
        0.0,
        2.2486565113067627,
        1.634220838546753,
        -8.28060531616211,
        1.0
      ],
      "name": "pDisc2"
    },
    {
      "mesh": 6,
      "name": "pDisc2_lambert5_0"
    }
  ],
  "samplers": [
    {
      "magFilter": 9729,
      "minFilter": 9987,
      "wrapS": 10497,
      "wrapT": 10497
    }
  ],
  "scene": 0,
  "scenes": [
    {
      "name": "Sketchfab_Scene",
      "nodes": [
        0
      ]
    }
  ],
  "textures": [
    {
      "sampler": 0,
      "source": 0
    },
    {
      "sampler": 0,
      "source": 1
    },
    {
      "sampler": 0,
      "source": 2
    },
    {
      "sampler": 0,
      "source": 3
    }
  ]
}
